<?xml version="1.0" encoding="UTF-8" standalone="no"?>
<svg width="33px" height="32px" viewBox="0 0 33 32" version="1.1" xmlns="http://www.w3.org/2000/svg" xmlns:xlink="http://www.w3.org/1999/xlink" xmlns:sketch="http://www.bohemiancoding.com/sketch/ns">
    <!-- Generator: Sketch 3.3 (11970) - http://www.bohemiancoding.com/sketch -->
    <title>Shape Copy 3</title>
    <desc>Created with Sketch.</desc>
    <defs></defs>
    <g id="Page-1" stroke="none" stroke-width="1" fill="none" fill-rule="evenodd" sketch:type="MSPage">
        <g id="Shape-+-Shape-+-Shape-Copy-3" sketch:type="MSLayerGroup" transform="translate(6.263237, 2.250000)" fill="#FFFFFF">
            <path d="M0,1.75 C0.594285714,1.75 1.06666667,0.975 1.06666667,0 L20.2666667,0 C20.2666667,0.975 20.7390476,1.75 21.3333333,1.75 L21.3333333,3.25 C20.7390476,3.25 20.2666667,4.025 20.2666667,5 L1.06666667,5 C1.06666667,4.025 0.594285714,3.25 0,3.25 L0,1.75 L0,1.75 Z" id="Shape" sketch:type="MSShapeGroup"></path>
            <path d="M0,11.75 C0.594285714,11.75 1.06666667,10.975 1.06666667,10 L20.2666667,10 C20.2666667,10.975 20.7390476,11.75 21.3333333,11.75 L21.3333333,13.25 C20.7390476,13.25 20.2666667,14.025 20.2666667,15 L1.06666667,15 C1.06666667,14.025 0.594285714,13.25 0,13.25 L0,11.75 L0,11.75 Z" id="Shape" sketch:type="MSShapeGroup"></path>
            <path d="M0,21.75 C0.594285714,21.75 1.06666667,20.975 1.06666667,20 L20.2666667,20 C20.2666667,20.975 20.7390476,21.75 21.3333333,21.75 L21.3333333,23.25 C20.7390476,23.25 20.2666667,24.025 20.2666667,25 L1.06666667,25 C1.06666667,24.025 0.594285714,23.25 0,23.25 L0,21.75 L0,21.75 Z" id="Shape" sketch:type="MSShapeGroup"></path>
        </g>
    </g>
</svg>