<?xml version="1.0" encoding="UTF-8" standalone="no"?>
<svg width="32px" height="32px" viewBox="0 0 32 32" version="1.1" xmlns="http://www.w3.org/2000/svg" xmlns:xlink="http://www.w3.org/1999/xlink" xmlns:sketch="http://www.bohemiancoding.com/sketch/ns">
    <!-- Generator: Sketch 3.3 (11970) - http://www.bohemiancoding.com/sketch -->
    <title>Shape Copy 3</title>
    <desc>Created with Sketch.</desc>
    <defs></defs>
    <g id="Page-1" stroke="none" stroke-width="1" fill="none" fill-rule="evenodd" sketch:type="MSPage">
        <path d="M16.7068446,18.2945092 C19.0075806,18.6239601 20.7218546,20.046589 21.1579418,20.4658902 C21.594029,20.8702163 21.8797413,23.9101498 21.8797413,23.9101498 L4.00016502,23.9101498 C4.00016502,23.9101498 3.97009004,21.4392679 4.72196457,20.4658902 C5.1580518,20.046589 7.29337546,18.6239601 9.60914901,18.2945092 C11.9098851,17.9500832 11.2783105,15.4043261 11.3534979,15.4492512 C11.4286854,15.4792013 11.3384604,14.8951747 11.3384604,14.8951747 C11.3384604,14.8951747 9.90989882,13.2928453 9.9399738,11.8402662 C9.95501129,10.3876872 9.9399738,9.44425957 9.9399738,9.44425957 C9.9399738,9.44425957 9.89486133,6 12.2407099,6 L13.6993465,6.64392679 C15.8196326,6.64392679 15.9700075,9.44425957 15.9700075,9.44425957 L15.9700075,12.0499168 C15.9700075,12.0499168 15.8797826,14.0415973 14.5564834,14.7753744 C14.5564834,14.7753744 14.451221,15.359401 14.5264084,15.3294509 C14.6015959,15.2845258 14.391071,17.9500832 16.7068446,18.2945092 L16.7068446,18.2945092 Z M23.5789778,23.9700499 C23.5789778,23.9700499 23.5037903,20.4209651 23.3534154,20.2562396 C23.218078,20.0765391 23.2030405,19.3577371 21.594029,18.3693844 C21.7594414,17.875208 21.6090665,17.7404326 21.6391415,17.7554077 C21.684254,17.7853577 21.624104,17.4259567 21.624104,17.4259567 C21.624104,17.4259567 20.5113297,16.437604 20.5263672,15.5540765 C20.5414047,14.6705491 20.5263672,13.9966722 20.5263672,13.9966722 C20.5263672,13.9966722 20.7519295,11.9900166 22.1955286,11.9900166 L23.4586778,12.1397671 C24.7669395,12.1397671 24.8872394,13.9966722 24.8872394,13.9966722 L24.8872394,15.6888519 C24.8872394,15.6888519 24.4962647,16.9018303 23.6842402,17.3510815 C23.6842402,17.3510815 23.6240902,17.7104825 23.6692027,17.6805324 C23.7143152,17.6655574 23.7143152,19.2828619 25.1278393,19.4925125 C26.5413634,19.7021631 26.9473757,20.5707155 27.2180505,20.8252912 C27.4887253,21.0798669 28,24 28,24 L23.5789778,23.9700499 L23.5789778,23.9700499 Z" id="Shape-Copy-5" fill="#FFFFFF" sketch:type="MSShapeGroup"></path>
    </g>
</svg>