<?xml version="1.0" encoding="UTF-8" standalone="no"?>
<svg width="33px" height="32px" viewBox="0 0 33 32" version="1.1" xmlns="http://www.w3.org/2000/svg" xmlns:xlink="http://www.w3.org/1999/xlink" xmlns:sketch="http://www.bohemiancoding.com/sketch/ns">
    <!-- Generator: Sketch 3.3 (11970) - http://www.bohemiancoding.com/sketch -->
    <title>Shape Copy 3</title>
    <desc>Created with Sketch.</desc>
    <defs></defs>
    <g id="Page-1" stroke="none" stroke-width="1" fill="none" fill-rule="evenodd" sketch:type="MSPage">
        <path d="M7.56410256,21.0690909 L7.56410256,22.7036364 C7.56410256,23.4222727 8.11364802,24 8.79001166,24 L14.7927389,24 C15.4691026,24 16.018648,23.4222727 16.018648,22.7036364 L16.018648,21.0690909 C16.018648,20.3504545 15.4691026,19.7727273 14.7927389,19.7727273 L8.79001166,19.7727273 C8.11364802,19.7727273 7.56410256,20.3504545 7.56410256,21.0690909 L7.56410256,21.0690909 Z M17.4277389,21.0690909 L17.4277389,22.7036364 C17.4277389,23.4222727 17.9772844,24 18.653648,24 L23.768648,24 L24.6563753,24 C25.3327389,24 25.8822844,23.4222727 25.8822844,22.7036364 L25.8822844,21.8863636 L25.8822844,21.0690909 C25.8822844,20.3504545 25.3327389,19.7727273 24.6563753,19.7727273 L23.768648,19.7727273 L18.653648,19.7727273 C17.9772844,19.7727273 17.4277389,20.3504545 17.4277389,21.0690909 L17.4277389,21.0690909 Z M7.56410256,18.3636364 L10.6359207,18.3636364 C11.2700117,18.3636364 11.7913753,17.7013636 11.7913753,16.9827273 L11.7913753,15.4327273 C11.7913753,14.7140909 11.2700117,14.1363636 10.6359207,14.1363636 L7.56410256,14.1363636 L7.56410256,18.3636364 L7.56410256,18.3636364 Z M25.8822844,18.3636364 L25.8822844,14.1363636 L22.8104662,14.1363636 C22.1763753,14.1363636 21.6550117,14.7140909 21.6550117,15.4327273 L21.6550117,16.9827273 C21.6550117,17.7013636 22.3031935,18.3636364 22.9372844,18.3636364 L25.8822844,18.3636364 L25.8822844,18.3636364 Z M13.2004662,15.4327273 L13.2004662,17.0672727 C13.2004662,17.7859091 13.7218298,18.3636364 14.3559207,18.3636364 L19.0904662,18.3636364 C19.7245571,18.3636364 20.2459207,17.7859091 20.2459207,17.0672727 L20.2459207,15.4327273 C20.2459207,14.7140909 19.7245571,14.1363636 19.0904662,14.1363636 L14.3559207,14.1363636 C13.7218298,14.1363636 13.2004662,14.7140909 13.2004662,15.4327273 L13.2004662,15.4327273 Z M7.56410256,9.79636364 L7.56410256,11.4309091 C7.56410256,12.1495455 8.11364802,12.7272727 8.79001166,12.7272727 L14.7927389,12.7272727 C15.4691026,12.7272727 16.018648,12.1495455 16.018648,11.4309091 L16.018648,9.79636364 C16.018648,9.07772727 15.4691026,8.5 14.7927389,8.5 L8.79001166,8.5 C8.11364802,8.5 7.56410256,9.07772727 7.56410256,9.79636364 L7.56410256,9.79636364 Z M17.4277389,9.79636364 L17.4277389,11.4309091 C17.4277389,12.1495455 17.9772844,12.7272727 18.653648,12.7272727 L24.6563753,12.7272727 C25.3327389,12.7272727 25.8822844,12.1495455 25.8822844,11.4309091 L25.8822844,9.79636364 C25.8822844,9.07772727 25.3327389,8.5 24.6563753,8.5 L18.653648,8.5 C17.9772844,8.5 17.4277389,9.07772727 17.4277389,9.79636364 L17.4277389,9.79636364 Z" id="Shape-Copy-8" fill="#FFFFFF" sketch:type="MSShapeGroup"></path>
    </g>
</svg>