<?xml version="1.0" encoding="UTF-8" standalone="no"?>
<svg width="33px" height="32px" viewBox="0 0 33 32" version="1.1" xmlns="http://www.w3.org/2000/svg" xmlns:xlink="http://www.w3.org/1999/xlink" xmlns:sketch="http://www.bohemiancoding.com/sketch/ns">
    <!-- Generator: Sketch 3.3 (11970) - http://www.bohemiancoding.com/sketch -->
    <title>Shape Copy 3</title>
    <desc>Created with Sketch.</desc>
    <defs></defs>
    <g id="Page-1" stroke="none" stroke-width="1" fill="none" fill-rule="evenodd" sketch:type="MSPage">
        <path d="M4.5,15.25 L4.5,16.75 L6,16.75 L6,18.25 L7.5,18.25 L7.5,19.75 L9,19.75 L9,22.75 L10.5,22.75 L10.5,18.25 L12,18.25 L12,21.25 L13.5,21.25 L13.5,19.75 L15,19.75 L15,18.25 L16.5,18.25 L16.5,16.75 L18,16.75 L18,18.25 L19.5,18.25 L19.5,19.75 L21,19.75 L21,18.25 L22.5,18.25 L22.5,16.75 L24,16.75 L24,21.25 L25.5,21.25 L25.5,18.25 L27,18.25 L27,16.75 L28.5,16.75 L28.5,15.25 L27,15.25 L27,13.75 L25.5,13.75 L25.5,10.75 L24,10.75 L24,15.25 L22.5,15.25 L22.5,13.75 L21,13.75 L21,12.25 L19.5,12.25 L19.5,13.75 L18,13.75 L18,15.25 L16.5,15.25 L16.5,13.75 L15,13.75 L15,12.25 L13.5,12.25 L13.5,10.75 L12,10.75 L12,13.75 L10.5,13.75 L10.5,9.25 L9,9.25 L9,12.25 L7.5,12.25 L7.5,13.75 L6,13.75 L6,15.25 L4.5,15.25 Z" id="Shape-Copy-6" fill="#FFFFFF" sketch:type="MSShapeGroup"></path>
    </g>
</svg>