<?xml version="1.0" encoding="UTF-8" standalone="no"?>
<svg width="33px" height="32px" viewBox="0 0 33 32" version="1.1" xmlns="http://www.w3.org/2000/svg" xmlns:xlink="http://www.w3.org/1999/xlink" xmlns:sketch="http://www.bohemiancoding.com/sketch/ns">
    <!-- Generator: Sketch 3.3 (11970) - http://www.bohemiancoding.com/sketch -->
    <title>Shape Copy 3</title>
    <desc>Created with Sketch.</desc>
    <defs></defs>
    <g id="Page-1" stroke="none" stroke-width="1" fill="none" fill-rule="evenodd" sketch:type="MSPage">
        <path d="M15.3390736,7.21763869 C14.665368,7.21763869 15.2483825,7.42247511 14.8856179,7.47368421 C14.5228534,7.52489331 15.3649853,7.42247511 14.2766917,7.62731152 C13.1883981,7.84495021 12.9681482,9.22759602 12.9163247,9.73968706 C12.8645012,10.2517781 12.8515453,10.4054054 12.8774571,11.173542 C12.9811041,11.6344239 12.4628691,11.6344239 12.4628691,11.6344239 C11.8021194,11.5960171 11.6984724,13.6059744 11.6984724,13.6059744 C11.7891635,14.1052632 11.6596047,14.3485064 12.6312955,14.7325747 C13.0847511,16.0256046 14.2637359,16.6785206 14.2637359,16.6785206 C14.2637359,16.6785206 14.3155594,17.5106686 14.3414711,18.0995733 C14.2378241,18.0611664 14.1600888,19.6230441 11.1672814,20.0583215 C8.16151815,20.4935989 7.5914596,21.4537696 7.02140105,21.9914651 C6.45134249,22.5291607 6.5549895,25 6.5549895,25 L25.8333333,25 C25.8333333,25 25.7037746,22.5291607 25.1466719,21.9914651 C24.5766133,21.4537696 23.9547313,20.4935989 20.9619239,20.0583215 C17.9561606,19.6230441 18.1634546,18.0995733 18.1375429,18.0099573 C18.1504987,17.7795164 18.2541457,16.7809388 18.2541457,16.7809388 C18.2541457,16.7809388 19.2258365,15.9871977 19.6792921,14.6941679 C20.4048212,14.2460882 20.6768946,14.1820768 20.8064534,13.6571835 C20.8064534,13.6571835 21.1303503,11.685633 20.3529977,11.685633 C20.3529977,11.685633 19.4590422,11.7368421 19.5626892,11.2759602 C19.6663362,10.8150782 19.6274686,10.6614509 19.5756451,10.1493599 C19.5238216,9.63726885 19.8347626,8.16500711 18.746469,7.9601707 C18.0079841,7.83214794 18.2411899,8.03698435 17.8784253,7.98577525 C17.5156608,7.93456615 17.0881169,7 16.4144113,7 L15.3390736,7.21763869 L15.3390736,7.21763869 Z" id="Shape-Copy-9" fill="#FFFFFF" sketch:type="MSShapeGroup"></path>
    </g>
</svg>